<?xml version="1.0" encoding="UTF-8"?>
<!DOCTYPE svg PUBLIC "-//W3C//DTD SVG 1.1//EN" "http://www.w3.org/Graphics/SVG/1.1/DTD/svg11.dtd">
<!-- Creator: CorelDRAW 2017 -->
<svg xmlns="http://www.w3.org/2000/svg" xml:space="preserve" width="210mm" height="297mm" version="1.1" style="shape-rendering:geometricPrecision; text-rendering:geometricPrecision; image-rendering:optimizeQuality; fill-rule:evenodd; clip-rule:evenodd"
viewBox="0 0 21000 29700"
 xmlns:xlink="http://www.w3.org/1999/xlink">
 <defs>
  <style type="text/css">
   <![CDATA[
    .str0 {stroke:#596BA3;stroke-width:20;stroke-miterlimit:22.9256}
    .str1 {stroke:#F76C5E;stroke-width:7.62;stroke-miterlimit:22.9256}
    .fil2 {fill:#24272C}
    .fil4 {fill:#52514F}
    .fil0 {fill:#596BA3}
    .fil6 {fill:#898886}
    .fil3 {fill:#D7D7D7}
    .fil5 {fill:#F76C5E}
    .fil1 {fill:#FDFDFD}
   ]]>
  </style>
 </defs>
 <g id="Layer_x0020_1">
  <metadata id="CorelCorpID_0Corel-Layer"/>
  <circle class="fil0 str0" cx="12157.8" cy="13556.4" r="6252.24"/>
  <g id="_2537353221440">
   <polygon class="fil1" points="12360.09,16867.51 16124.1,16859.35 16122.25,10456.58 12361.01,10456.1 "/>
   <path class="fil1" d="M8840.69 10444.17c4.78,324.65 1.41,652.36 1.08,977.34 -0.2,191.08 13.55,302.17 27.73,482.52 13.92,176.85 -32.67,299.47 -22.25,493.98l3.67 294.32 -8.17 278.94 -3.39 301.18 0.74 271.25 0.87 296.98 1.5 294.32 -2.51 302.85 -0.7 270.69 5.12 301.46 5.84 278.56 -4.14 294.42 2.34 145.03 873.31 116.53c140.5,4.11 397.79,81.53 537.82,120.81 153.32,43.01 390.29,138.61 515.87,152.28 191.7,81.4 463.51,236.08 634.63,342.42 123.11,76.49 486.83,347.63 584.65,364.06l-3.09 -6374.94c-154.32,-120.39 -309.8,-237.29 -466.73,-348.42 -157.54,-111.57 -349.59,-219.54 -488.02,-330.08 -335.46,-154.38 -529.08,-290.81 -952.09,-384.52 -369.94,-81.95 -853.69,-113.58 -1238.56,-62.6l-5.52 1120.62z"/>
   <path class="fil2" d="M11036.86 9770.67c138.43,110.54 330.48,218.51 488.02,330.08 156.93,111.13 312.41,228.03 466.73,348.42l369.4 6.93 3761.24 0.48 1.85 6402.77 -3764.01 8.16 -7.84 341.09c-82.74,-25.62 -95.21,-39.31 -154.49,-107.28 -103.55,39.93 -90.88,74.04 -200.64,106.75l-3.54 -334.25 -1096.74 1.16c4.85,1073.17 69.23,932.54 1577.51,933.18 851.28,0.36 1702.58,0.41 2553.85,0.12 1456.05,-0.5 1411.5,89.36 1411.02,-1107.44l0.33 -5080.65c-0.32,-425.75 -0.8,-851.55 -0.1,-1277.3 0.48,-296.19 35.78,-670.97 -509.24,-750.98 -235.77,-34.61 -3307.44,-9.02 -3824.75,-9.12 -427.72,-0.09 -799.98,-64.36 -1068.6,187.88z"/>
   <path class="fil3" d="M10896.84 16874.98l1096.74 -1.16 1.12 -49.71c-97.82,-16.43 -461.54,-287.57 -584.65,-364.06 -171.12,-106.34 -442.93,-261.02 -634.63,-342.42 -45.12,83.15 22.24,32.01 -116.02,53.28 -12.8,1.96 -121.66,-0.18 -142.53,-0.58 -532.8,-10.16 -1747.64,29.41 -2096.94,-9.33l-2.21 -309.43 1304.01 -7.03 -873.31 -116.53 -2.34 -145.03 -428.79 8.67 0.5 -321.78 432.43 18.69 -5.84 -278.56 -426.8 9.19 9.67 -324.85 412.01 14.2 0.7 -270.69 -421.41 9.24 5.35 -326.84 418.57 14.75 -1.5 -294.32 -421.61 9.25 6.21 -320.29 414.53 14.06 -0.74 -271.25 -420.56 9.25 4.26 -326.29 419.69 15.86 8.17 -278.94c-139.49,30.49 -291.59,26.11 -435.09,10.06l5.3 -321.22 426.12 16.84c-10.42,-194.51 36.17,-317.13 22.25,-493.98 -14.18,-180.35 -27.93,-291.44 -27.73,-482.52 0.33,-324.98 3.7,-652.69 -1.08,-977.34l-961.35 10.68 -3.82 6416.12 3021.32 4.01z"/>
   <polygon class="fil4" points="12533.68,12017.56 12538.93,13854.8 14399.46,13856.46 14410.34,11810.03 12532.96,11810.79 "/>
   <path class="fil5 str1" d="M11994.7 16824.11l-1.12 49.71 3.54 334.25c109.76,-32.71 97.09,-66.82 200.64,-106.75 59.28,67.97 71.75,81.66 154.49,107.28l7.84 -341.09 0.92 -6411.41 -369.4 -6.93 3.09 6374.94z"/>
   <polygon class="fil4" points="12533.3,15596.67 15582.91,15602.32 15583.1,15268.23 12532.85,15268.63 "/>
   <polygon class="fil4" points="12534.13,15024.01 15583.99,15027.77 15586.16,14700.29 12540.72,14691.67 "/>
   <polygon class="fil4" points="12534.66,14451.34 15583.93,14454.13 15586.84,14129.09 12537.33,14117.8 "/>
   <polygon class="fil4" points="12534.19,16165.1 15579.04,16171.14 15581.91,15841.74 12536.57,15841.72 "/>
   <path class="fil4" d="M9460.94 13351.55c162.18,96.63 901.54,158.64 1559.9,488.96 143.62,72.06 326.41,196.72 462.43,245.93 23.42,-375.14 -19.37,-340.13 -282,-482.73 -570.88,-309.99 -1055.74,-460.52 -1732.87,-564.18l-7.46 312.02z"/>
   <path class="fil4" d="M9462.17 14515.32c225.33,119.45 1007.33,194.02 1565.21,480.31 148.17,76.05 325.32,193.43 459.93,236.7l-1.08 -323.65c-310.01,-142.42 -545.09,-311.92 -926.48,-437.76 -299.93,-98.96 -772.49,-221.36 -1095.01,-271.43l-2.57 315.83z"/>
   <path class="fil4" d="M9460.59 11960.79l5.47 227.31c127.45,47.22 414.42,84.71 561.83,118.94 176.15,40.91 364.54,91.44 529.8,151.75 433.38,158.15 788.13,419.41 925.9,463.65 7.07,-259.41 36.19,-303.93 -117.47,-392.91 -256.66,-148.63 -437.51,-258.87 -730.57,-376.76 -312.42,-125.68 -803.76,-243.68 -1175.07,-288.43l0.11 96.45z"/>
   <path class="fil4" d="M9463.31 11024.2c121.92,51.44 425.17,83 569.96,115.13 897.93,199.29 1205.45,561.18 1453.66,635.62 0.74,-361.17 57.03,-304.94 -397.96,-556.68 -558.94,-309.24 -936.64,-431.1 -1625.76,-514.22l0.1 320.15z"/>
   <path class="fil4" d="M9459.95 12727.14c54.29,86.75 335.51,108.75 533.22,157.14 1120.71,274.29 1130.57,486.83 1491.52,611.03l2.24 -323.09c-289.57,-135.77 -534.7,-324.08 -901.72,-457.49 -289.6,-105.27 -795,-234.71 -1121.45,-271.85l-3.81 284.26z"/>
   <path class="fil4" d="M9463.34 11617.56c1321.15,163.06 1721.7,636.68 2024.02,726.25l-0.1 -269.48c-69.19,-151.04 -676.03,-432.54 -881.03,-513.67 -322.75,-127.75 -761.9,-227.68 -1140.83,-277.25l-2.06 334.15z"/>
   <path class="fil4" d="M9461.94 13951.96c1348.92,209.49 1631.2,577.97 2022.31,707.51l2.49 -323.42c-293.75,-127.7 -543.18,-316.9 -915.21,-443.54 -311.06,-105.89 -767.1,-217.57 -1111.87,-273.58l2.28 333.03z"/>
   <path class="fil4" d="M9461.63 15112.27c328.26,54.08 749.93,174.1 1069.02,268.35 476.28,140.68 781.65,368.96 955.95,420.53l-2.42 -320.26c-316.5,-143.91 -549.74,-309.54 -933.66,-429.37 -328.56,-102.54 -744.08,-209.44 -1080.7,-273.66l-8.19 334.41z"/>
   <polygon class="fil4" points="13070.7,11473.05 15045.98,11477.77 15049.45,11150.81 13079.43,11146.71 "/>
   <path class="fil4" d="M10775.42 16117.63c-125.58,-13.67 -362.55,-109.27 -515.87,-152.28 -140.03,-39.28 -397.32,-116.7 -537.82,-120.81l-1304.01 7.03 2.21 309.43c349.3,38.74 1564.14,-0.83 2096.94,9.33 20.87,0.4 129.73,2.54 142.53,0.58 138.26,-21.27 70.9,29.87 116.02,-53.28z"/>
   <path class="fil4" d="M9863.18 10429.8c780.52,147.69 923.42,348.53 1215.12,429.55l0.44 -317.68c-389.84,-184.37 -700.43,-368.45 -1206.41,-443.15l-9.15 331.28z"/>
   <polygon class="fil4" points="14594.36,12017.56 14596.04,12139.46 14744.44,12140.11 14999.83,12139.94 15580.35,12139.83 15584.03,11805.49 15425.47,11806.32 14594.26,11806.31 "/>
   <polygon class="fil4" points="14593.46,12713.18 14630.94,12712.99 15583.29,12712.81 15581.03,12379.47 14598.35,12379.23 "/>
   <polygon class="fil4" points="14596.73,13289.82 15583.67,13288.4 15587.17,12964.93 14600.43,12952.14 "/>
   <polygon class="fil4" points="14597.31,13857.99 15581.93,13856.93 15586.58,13536.2 14603.87,13526.37 "/>
   <path class="fil1" d="M13527.4 17124.34c-247.26,160.29 6.16,476.48 277.68,339.98 247.68,-124.52 23.77,-535.39 -277.68,-339.98z"/>
   <path class="fil4" d="M8850.92 12692.33l-3.67 -294.32 -426.12 -16.84 -5.3 321.22c143.5,16.05 295.6,20.43 435.09,-10.06z"/>
   <polygon class="fil4" points="8416.52,11932.41 8417.82,12130.27 8529.95,12140.32 8558.45,12138.64 8827.81,12137.81 8832.25,12017.58 8831.45,11932.41 8830.97,11807.13 8416.78,11811.15 "/>
   <polygon class="fil4" points="8846.08,15582.98 8850.22,15288.56 8417.79,15269.87 8417.29,15591.65 "/>
   <polygon class="fil4" points="8839.96,14437.85 8842.47,14135 8423.9,14120.25 8418.55,14447.09 "/>
   <polygon class="fil4" points="8839.36,13272.45 8842.75,12971.27 8423.06,12955.41 8418.8,13281.7 "/>
   <polygon class="fil4" points="8844.38,15010 8839.26,14708.54 8427.25,14694.34 8417.58,15019.19 "/>
   <polygon class="fil4" points="8840.97,13840.68 8840.1,13543.7 8425.57,13529.64 8419.36,13849.93 "/>
   <path class="fil1" d="M13028.83 10205.68c111.96,0.97 1164.48,37.59 1260.12,-33.05 -148.98,-76.61 -1009.63,-25.82 -1250.95,-22.71l-9.17 55.76z"/>
   <path class="fil6" d="M13028.83 10205.68c12.38,7.28 16.95,21.05 68.67,29.98 17.03,2.94 65.83,4.03 84.96,4.38 54.52,0.99 115.84,-2.05 171.56,-2.16l681.04 0.12c130.45,0.78 228.21,37.62 286.14,-65.37 -77.9,-107.03 -707.4,-49.9 -967.19,-50.47 -56.26,-0.12 -116.44,-2.91 -171.83,-2.11l-144.18 29.87c241.32,-3.11 1101.97,-53.9 1250.95,22.71 -95.64,70.64 -1148.16,34.02 -1260.12,33.05z"/>
  </g>
 </g>
</svg>
